<svg width="63" height="74" viewBox="0 0 63 74" fill="none" xmlns="http://www.w3.org/2000/svg">
<rect y="-0.00012207" width="63" height="74" rx="9.96266" fill="url(#paint0_linear_1_275)"/>
<path d="M21.0422 9.3963C21.1333 9.3963 21.2282 9.41907 21.3268 9.46461C21.4255 9.51016 21.5014 9.57468 21.5546 9.65817L24.4466 14.0645L23.957 14.0417L26.9059 9.65817C27.0274 9.48359 27.183 9.3963 27.3728 9.3963C27.5246 9.3963 27.6574 9.45323 27.7713 9.56709C27.8927 9.67335 27.9534 9.80998 27.9534 9.97698V16.7971C27.9534 16.9641 27.9003 17.1045 27.794 17.2184C27.6878 17.3247 27.5473 17.3778 27.3728 17.3778C27.1906 17.3778 27.0426 17.3247 26.9287 17.2184C26.8224 17.1045 26.7693 16.9641 26.7693 16.7971V11.0245L27.1337 11.1042L24.6288 14.9185C24.5756 14.9868 24.5073 15.0475 24.4238 15.1006C24.3403 15.1462 24.253 15.1651 24.1619 15.1576C24.0784 15.1651 23.9911 15.1462 23.9001 15.1006C23.8166 15.0475 23.7482 14.9868 23.6951 14.9185L21.2813 11.1611L21.5546 10.7057V16.7971C21.5546 16.9641 21.5014 17.1045 21.3952 17.2184C21.2965 17.3247 21.1637 17.3778 20.9967 17.3778C20.8373 17.3778 20.7044 17.3247 20.5982 17.2184C20.4995 17.1045 20.4501 16.9641 20.4501 16.7971V9.97698C20.4501 9.81758 20.5071 9.68094 20.6209 9.56709C20.7424 9.45323 20.8828 9.3963 21.0422 9.3963ZM35.4256 14.3833C35.4256 14.9906 35.2928 15.5295 35.0271 16.0001C34.7614 16.4631 34.4009 16.8275 33.9454 17.0932C33.49 17.3588 32.9776 17.4917 32.4083 17.4917C31.8391 17.4917 31.3267 17.3588 30.8713 17.0932C30.4158 16.8275 30.0515 16.4631 29.7782 16.0001C29.5125 15.5295 29.3797 14.9906 29.3797 14.3833C29.3797 13.7685 29.5125 13.2295 29.7782 12.7665C30.0515 12.2959 30.4158 11.9278 30.8713 11.6621C31.3267 11.3888 31.8391 11.2522 32.4083 11.2522C32.9776 11.2522 33.49 11.3888 33.9454 11.6621C34.4009 11.9278 34.7614 12.2959 35.0271 12.7665C35.2928 13.2295 35.4256 13.7685 35.4256 14.3833ZM34.287 14.3833C34.287 13.9658 34.2035 13.6053 34.0365 13.3017C33.8695 12.9904 33.6418 12.7475 33.3534 12.573C33.0725 12.3908 32.7575 12.2997 32.4083 12.2997C32.0592 12.2997 31.7404 12.3908 31.4519 12.573C31.1635 12.7475 30.9358 12.9904 30.7688 13.3017C30.6018 13.6053 30.5183 13.9658 30.5183 14.3833C30.5183 14.7856 30.6018 15.1424 30.7688 15.4536C30.9358 15.7648 31.1635 16.0077 31.4519 16.1823C31.7404 16.3569 32.0592 16.4442 32.4083 16.4442C32.7575 16.4442 33.0725 16.3569 33.3534 16.1823C33.6418 16.0077 33.8695 15.7648 34.0365 15.4536C34.2035 15.1424 34.287 14.7856 34.287 14.3833ZM39.7999 11.2522C40.3389 11.2522 40.7563 11.3661 41.0524 11.5938C41.3484 11.8139 41.5534 12.1137 41.6672 12.4933C41.7887 12.8652 41.8494 13.2827 41.8494 13.7457V16.7971C41.8494 16.9641 41.7925 17.1045 41.6786 17.2184C41.5723 17.3247 41.4395 17.3778 41.2801 17.3778C41.1131 17.3778 40.9765 17.3247 40.8702 17.2184C40.7639 17.1045 40.7108 16.9641 40.7108 16.7971V13.7571C40.7108 13.4838 40.6728 13.2409 40.5969 13.0284C40.521 12.8083 40.3882 12.6337 40.1984 12.5046C40.0163 12.368 39.7582 12.2997 39.4242 12.2997C39.113 12.2997 38.8397 12.368 38.6044 12.5046C38.3691 12.6337 38.1831 12.8083 38.0465 13.0284C37.9175 13.2409 37.8529 13.4838 37.8529 13.7571V16.7971C37.8529 16.9641 37.796 17.1045 37.6821 17.2184C37.5759 17.3247 37.443 17.3778 37.2836 17.3778C37.1166 17.3778 36.98 17.3247 36.8738 17.2184C36.7675 17.1045 36.7143 16.9641 36.7143 16.7971V11.9695C36.7143 11.8025 36.7675 11.6659 36.8738 11.5596C36.98 11.4458 37.1166 11.3888 37.2836 11.3888C37.443 11.3888 37.5759 11.4458 37.6821 11.5596C37.796 11.6659 37.8529 11.8025 37.8529 11.9695V12.6071L37.648 12.721C37.7011 12.554 37.7922 12.387 37.9213 12.22C38.0579 12.0454 38.2211 11.886 38.4108 11.7418C38.6006 11.59 38.8131 11.4723 39.0485 11.3888C39.2838 11.2977 39.5343 11.2522 39.7999 11.2522ZM31.4242 45.6625C30.3616 45.6625 29.4127 45.4537 28.5778 45.0362C27.7618 44.6187 27.0691 44.0495 26.4998 43.3283C25.9495 42.6072 25.5226 41.8007 25.2189 40.9088C24.9343 39.998 24.792 39.0681 24.792 38.1193C24.792 37.3792 24.8774 36.5348 25.0481 35.5859C25.2189 34.6181 25.5036 33.6219 25.9021 32.5971C26.3006 31.5534 26.8224 30.5572 27.4676 29.6083C28.1318 28.6595 28.9478 27.8056 29.9156 27.0465C30.9024 26.2685 32.0694 25.6802 33.4168 25.2817C33.6065 25.2248 33.7868 25.1963 33.9576 25.1963C34.3371 25.1963 34.6692 25.3007 34.9539 25.5094C35.2575 25.6992 35.4093 26.0503 35.4093 26.5626C35.4093 26.9042 35.2954 27.2078 35.0677 27.4735C34.84 27.7202 34.5364 27.9005 34.1569 28.0143C33.4737 28.242 32.7906 28.5836 32.1074 29.0391C31.4242 29.4945 30.7885 30.0353 30.2003 30.6615C29.612 31.2878 29.1091 31.9899 28.6916 32.7679C28.2931 33.527 27.999 34.324 27.8092 35.159L27.0976 35.2728C27.3823 34.8364 27.7428 34.4189 28.1793 34.0204C28.6347 33.6029 29.166 33.2613 29.7733 32.9956C30.3805 32.711 31.0732 32.5687 31.8512 32.5687C32.6293 32.5687 33.3788 32.7395 34.0999 33.081C34.821 33.4226 35.4662 33.897 36.0355 34.5043C36.6238 35.1115 37.0792 35.8137 37.4018 36.6107C37.7434 37.4077 37.9142 38.2521 37.9142 39.144C37.9142 40.3206 37.6201 41.4117 37.0318 42.4175C36.4625 43.4043 35.6845 44.1918 34.6977 44.78C33.7299 45.3683 32.6387 45.6625 31.4242 45.6625ZM31.3958 43.0152C32.0979 43.0152 32.7241 42.8539 33.2745 42.5313C33.8248 42.1898 34.2612 41.7248 34.5838 41.1366C34.9064 40.5483 35.0677 39.8841 35.0677 39.144C35.0677 38.4039 34.9159 37.7398 34.6123 37.1515C34.3087 36.5632 33.8817 36.0888 33.3314 35.7283C32.8 35.3677 32.1738 35.1874 31.4527 35.1874C30.7126 35.1874 30.0579 35.3677 29.4886 35.7283C28.9193 36.0888 28.4734 36.5727 28.1508 37.18C27.8282 37.7682 27.6669 38.4324 27.6669 39.1725C27.6669 39.8556 27.8282 40.5009 28.1508 41.1081C28.4734 41.6964 28.9099 42.1613 29.4602 42.5029C30.0295 42.8444 30.6747 43.0152 31.3958 43.0152Z" fill="white"/>
<defs>
<linearGradient id="paint0_linear_1_275" x1="63.3936" y1="37.0602" x2="-0.426653" y2="37.0602" gradientUnits="userSpaceOnUse">
<stop stop-color="#8DA4FF"/>
<stop offset="1" stop-color="#D1DBFF"/>
</linearGradient>
</defs>
</svg>
