<svg width="63" height="77" viewBox="0 0 63 77" fill="none" xmlns="http://www.w3.org/2000/svg">
<rect y="0.615112" width="62.6699" height="76.2399" rx="9.96266" fill="white"/>
<path d="M24.3722 18.4917C23.8257 18.4917 23.3399 18.4158 22.9149 18.2639C22.4898 18.1121 22.0837 17.8616 21.6966 17.5125C21.6131 17.4518 21.5485 17.3796 21.503 17.2961C21.465 17.2051 21.4461 17.114 21.4461 17.0229C21.4461 16.8787 21.4992 16.7496 21.6055 16.6358C21.7117 16.5219 21.8446 16.465 22.004 16.465C22.1254 16.465 22.2393 16.5067 22.3456 16.5902C22.634 16.8559 22.9338 17.057 23.245 17.1937C23.5638 17.3303 23.9358 17.3986 24.3609 17.3986C24.6645 17.3986 24.9415 17.3493 25.192 17.2506C25.4501 17.1519 25.6551 17.0191 25.8069 16.8521C25.9587 16.6851 26.0346 16.4915 26.0346 16.2714C26.0346 15.9982 25.9549 15.7742 25.7955 15.5996C25.6437 15.4175 25.4198 15.2695 25.1237 15.1556C24.8353 15.0342 24.4861 14.9317 24.0762 14.8482C23.6967 14.7799 23.3551 14.685 23.0515 14.5635C22.7555 14.4421 22.5012 14.2903 22.2886 14.1081C22.0761 13.9183 21.9129 13.6944 21.799 13.4363C21.6852 13.1783 21.6282 12.8784 21.6282 12.5368C21.6282 12.0738 21.7497 11.6753 21.9926 11.3413C22.2355 11.0073 22.5657 10.7493 22.9832 10.5671C23.4007 10.3849 23.8713 10.2938 24.395 10.2938C24.8732 10.2938 25.3211 10.3697 25.7386 10.5215C26.156 10.6658 26.4938 10.8631 26.7519 11.1136C26.9341 11.273 27.0252 11.4438 27.0252 11.626C27.0252 11.7626 26.9682 11.8916 26.8544 12.0131C26.7481 12.127 26.6229 12.1839 26.4786 12.1839C26.3724 12.1839 26.2813 12.1535 26.2054 12.0928C26.0839 11.9638 25.9207 11.8499 25.7158 11.7512C25.5108 11.645 25.2907 11.5577 25.0554 11.4893C24.8277 11.421 24.6076 11.3869 24.395 11.3869C24.0534 11.3869 23.7612 11.4362 23.5183 11.5349C23.2754 11.626 23.0894 11.755 22.9604 11.922C22.8314 12.0814 22.7668 12.2712 22.7668 12.4913C22.7668 12.7494 22.8389 12.9619 22.9832 13.1289C23.135 13.2959 23.3437 13.4325 23.6094 13.5388C23.8751 13.6375 24.1787 13.7286 24.5203 13.8121C24.9377 13.9032 25.3097 14.0056 25.6361 14.1195C25.9701 14.2333 26.2509 14.3814 26.4786 14.5635C26.7064 14.7381 26.8809 14.9582 27.0024 15.2239C27.1238 15.4896 27.1846 15.8198 27.1846 16.2145C27.1846 16.6699 27.0555 17.0684 26.7974 17.41C26.5394 17.7516 26.1978 18.0173 25.7727 18.207C25.3552 18.3968 24.8884 18.4917 24.3722 18.4917ZM32.9226 12.3888C33.082 12.3888 33.2148 12.4458 33.3211 12.5596C33.435 12.6659 33.4919 12.8025 33.4919 12.9695V15.964C33.4919 16.7534 33.2718 17.3721 32.8315 17.8199C32.3913 18.2602 31.7688 18.4803 30.9642 18.4803C30.1672 18.4803 29.5486 18.2602 29.1083 17.8199C28.6757 17.3721 28.4593 16.7534 28.4593 15.964V12.9695C28.4593 12.8025 28.5125 12.6659 28.6187 12.5596C28.725 12.4458 28.8616 12.3888 29.0286 12.3888C29.188 12.3888 29.3209 12.4458 29.4271 12.5596C29.541 12.6659 29.5979 12.8025 29.5979 12.9695V15.964C29.5979 16.4574 29.7118 16.8255 29.9395 17.0684C30.1748 17.3113 30.5164 17.4328 30.9642 17.4328C31.4197 17.4328 31.765 17.3113 32.0004 17.0684C32.2357 16.8255 32.3533 16.4574 32.3533 15.964V12.9695C32.3533 12.8025 32.4064 12.6659 32.5127 12.5596C32.619 12.4458 32.7556 12.3888 32.9226 12.3888ZM38.1607 12.2522C38.6997 12.2522 39.1172 12.3661 39.4132 12.5938C39.7092 12.8139 39.9142 13.1137 40.028 13.4933C40.1495 13.8652 40.2102 14.2827 40.2102 14.7457V17.7971C40.2102 17.9641 40.1533 18.1045 40.0394 18.2184C39.9331 18.3247 39.8003 18.3778 39.6409 18.3778C39.4739 18.3778 39.3373 18.3247 39.231 18.2184C39.1247 18.1045 39.0716 17.9641 39.0716 17.7971V14.7571C39.0716 14.4838 39.0337 14.2409 38.9578 14.0284C38.8818 13.8083 38.749 13.6337 38.5592 13.5046C38.3771 13.368 38.119 13.2997 37.785 13.2997C37.4738 13.2997 37.2005 13.368 36.9652 13.5046C36.7299 13.6337 36.5439 13.8083 36.4073 14.0284C36.2783 14.2409 36.2138 14.4838 36.2138 14.7571V17.7971C36.2138 17.9641 36.1568 18.1045 36.043 18.2184C35.9367 18.3247 35.8039 18.3778 35.6445 18.3778C35.4775 18.3778 35.3408 18.3247 35.2346 18.2184C35.1283 18.1045 35.0752 17.9641 35.0752 17.7971V12.9695C35.0752 12.8025 35.1283 12.6659 35.2346 12.5596C35.3408 12.4458 35.4775 12.3888 35.6445 12.3888C35.8039 12.3888 35.9367 12.4458 36.043 12.5596C36.1568 12.6659 36.2138 12.8025 36.2138 12.9695V13.6071L36.0088 13.721C36.0619 13.554 36.153 13.387 36.2821 13.22C36.4187 13.0454 36.5819 12.886 36.7717 12.7418C36.9614 12.59 37.174 12.4723 37.4093 12.3888C37.6446 12.2977 37.8951 12.2522 38.1607 12.2522ZM29.7398 46.5771C28.9997 46.5771 28.2312 46.4632 27.4342 46.2355C26.6561 46.0078 25.992 45.6662 25.4416 45.2108C25.2329 45.04 25.0716 44.8217 24.9577 44.5561C24.8439 44.2904 24.7869 44.0342 24.7869 43.7875C24.7869 43.5218 24.9008 43.2657 25.1285 43.019C25.3752 42.7533 25.7073 42.6205 26.1248 42.6205C26.4284 42.6205 26.7795 42.7723 27.178 43.0759C27.5575 43.3226 27.956 43.5313 28.3735 43.7021C28.81 43.8729 29.2559 43.9583 29.7113 43.9583C30.6981 43.9583 31.5521 43.778 32.2732 43.4175C32.9943 43.0569 33.5446 42.554 33.9241 41.9088C34.3226 41.2447 34.5219 40.4761 34.5219 39.6032C34.5219 38.7872 34.3416 38.0946 33.9811 37.5253C33.6205 36.937 33.1271 36.4816 32.5009 36.159C31.8936 35.8364 31.2105 35.6751 30.4514 35.6751C29.8252 35.6751 29.2749 35.7794 28.8005 35.9882C28.3261 36.1779 27.8991 36.3772 27.5196 36.5859C27.14 36.7757 26.789 36.8706 26.4664 36.8706C25.973 36.8706 25.6029 36.7662 25.3562 36.5575C25.1095 36.3298 24.9482 36.0641 24.8723 35.7605C24.8154 35.4379 24.8059 35.1437 24.8439 34.8781L25.8401 27.7334C25.8971 27.4108 26.0489 27.1451 26.2956 26.9364C26.5612 26.7087 26.8838 26.5948 27.2634 26.5948H35.6035C35.9831 26.5948 36.2962 26.7277 36.5429 26.9933C36.8085 27.24 36.9414 27.5531 36.9414 27.9327C36.9414 28.3122 36.8085 28.6253 36.5429 28.872C36.2962 29.1187 35.9831 29.242 35.6035 29.242H27.975L28.2881 28.9859L27.3772 35.1058L26.9503 34.2518C27.1211 34.0621 27.4057 33.8818 27.8042 33.711C28.2217 33.5212 28.6866 33.3694 29.199 33.2556C29.7303 33.1227 30.2617 33.0563 30.793 33.0563C32.0454 33.0563 33.1651 33.341 34.1518 33.9103C35.1576 34.4606 35.9451 35.2291 36.5144 36.2159C37.0837 37.2027 37.3684 38.3223 37.3684 39.5747C37.3684 40.979 37.0552 42.2125 36.429 43.2752C35.8028 44.3189 34.9204 45.1348 33.7818 45.7231C32.6432 46.2924 31.2959 46.5771 29.7398 46.5771Z" fill="#454545"/>
</svg>
