<svg width="63" height="77" viewBox="0 0 63 77" fill="none" xmlns="http://www.w3.org/2000/svg">
<rect x="0.247528" y="0.615112" width="62.6699" height="76.2399" rx="9.96266" fill="white"/>
<path d="M29.0387 10.3735C29.1905 10.3735 29.331 10.4305 29.46 10.5443C29.5891 10.6506 29.6536 10.7986 29.6536 10.9884C29.6536 11.0415 29.6422 11.106 29.6194 11.1819L27.2853 18.0135C27.2474 18.1273 27.179 18.2146 27.0804 18.2753C26.9817 18.3361 26.8792 18.3702 26.7729 18.3778C26.6667 18.3778 26.5604 18.3474 26.4541 18.2867C26.3479 18.226 26.2682 18.1349 26.215 18.0135L24.4161 13.8007L24.5185 13.8462L22.7423 18.0135C22.6816 18.1349 22.5981 18.226 22.4918 18.2867C22.3932 18.3474 22.2869 18.3778 22.173 18.3778C22.0744 18.3702 21.9757 18.3361 21.877 18.2753C21.7783 18.2146 21.71 18.1273 21.6721 18.0135L19.338 11.1819C19.3152 11.106 19.3038 11.0415 19.3038 10.9884C19.3038 10.7986 19.3721 10.6506 19.5087 10.5443C19.6454 10.4305 19.7858 10.3735 19.93 10.3735C20.0515 10.3735 20.1615 10.4077 20.2602 10.476C20.3665 10.5367 20.4386 10.6278 20.4765 10.7493L22.4463 16.6244H22.2414L23.972 12.3888C24.0251 12.275 24.0973 12.1839 24.1883 12.1156C24.287 12.0473 24.3971 12.0169 24.5185 12.0245C24.64 12.0169 24.7463 12.0473 24.8373 12.1156C24.936 12.1839 25.0081 12.275 25.0537 12.3888L26.6932 16.4991L26.5225 16.5902L28.4808 10.7493C28.5188 10.6278 28.5909 10.5367 28.6972 10.476C28.8034 10.4077 28.9173 10.3735 29.0387 10.3735ZM33.3144 18.4917C32.6844 18.4917 32.1379 18.3626 31.6748 18.1045C31.2118 17.8389 30.8513 17.4783 30.5932 17.0229C30.3427 16.5599 30.2174 16.0323 30.2174 15.4402C30.2174 14.7723 30.3503 14.203 30.6159 13.7324C30.8892 13.2542 31.2422 12.8898 31.6748 12.6393C32.1075 12.3812 32.5667 12.2522 33.0525 12.2522C33.4245 12.2522 33.7774 12.3281 34.1114 12.4799C34.4454 12.6241 34.7414 12.8291 34.9995 13.0948C35.2652 13.3528 35.4739 13.6603 35.6257 14.017C35.7776 14.3662 35.8573 14.7495 35.8648 15.167C35.8573 15.3188 35.7965 15.444 35.6827 15.5427C35.5688 15.6414 35.436 15.6907 35.2842 15.6907H30.8551L30.5818 14.7229H34.8629L34.6466 14.9279V14.6432C34.6314 14.3776 34.5441 14.1461 34.3847 13.9487C34.2253 13.7437 34.0279 13.5881 33.7926 13.4819C33.5573 13.368 33.3106 13.3111 33.0525 13.3111C32.8248 13.3111 32.6047 13.349 32.3921 13.4249C32.1872 13.4933 32.0012 13.6071 31.8342 13.7665C31.6748 13.9259 31.5458 14.1385 31.4471 14.4041C31.356 14.6622 31.3105 14.9848 31.3105 15.3719C31.3105 15.7894 31.3978 16.1538 31.5724 16.465C31.7469 16.7762 31.9823 17.0191 32.2783 17.1937C32.5743 17.3607 32.9007 17.4442 33.2575 17.4442C33.5383 17.4442 33.7698 17.4176 33.952 17.3645C34.1342 17.3037 34.286 17.2316 34.4074 17.1481C34.5289 17.0646 34.6352 16.9849 34.7263 16.909C34.8401 16.8407 34.954 16.8066 35.0678 16.8066C35.2045 16.8066 35.3183 16.8559 35.4094 16.9546C35.5005 17.0457 35.546 17.1557 35.546 17.2848C35.546 17.4518 35.4625 17.6036 35.2955 17.7402C35.0906 17.9376 34.806 18.1121 34.4416 18.2639C34.0848 18.4158 33.7091 18.4917 33.3144 18.4917ZM42.0591 9.95225C42.2261 9.95225 42.3627 10.0054 42.469 10.1116C42.5753 10.2179 42.6284 10.3583 42.6284 10.5329V17.7971C42.6284 17.9641 42.5753 18.1045 42.469 18.2184C42.3627 18.3247 42.2261 18.3778 42.0591 18.3778C41.8997 18.3778 41.7631 18.3247 41.6492 18.2184C41.543 18.1045 41.4898 17.9641 41.4898 17.7971V16.9773L41.7289 16.9887C41.7289 17.1254 41.672 17.281 41.5581 17.4556C41.4519 17.6225 41.3039 17.7857 41.1141 17.9451C40.9243 18.1045 40.7004 18.2374 40.4423 18.3436C40.1842 18.4423 39.9072 18.4917 39.6112 18.4917C39.0874 18.4917 38.6168 18.3588 38.1993 18.0932C37.7818 17.8199 37.4516 17.4518 37.2087 16.9887C36.9658 16.5181 36.8444 15.9792 36.8444 15.3719C36.8444 14.7647 36.9658 14.2295 37.2087 13.7665C37.4516 13.2959 37.778 12.9278 38.1879 12.6621C38.6054 12.3888 39.0684 12.2522 39.577 12.2522C39.8958 12.2522 40.1918 12.3053 40.4651 12.4116C40.746 12.5179 40.9889 12.6545 41.1938 12.8215C41.3987 12.9885 41.5581 13.1669 41.672 13.3566C41.7859 13.5388 41.8428 13.7134 41.8428 13.8804L41.4898 13.9145V10.5329C41.4898 10.3659 41.543 10.2293 41.6492 10.123C41.7631 10.0092 41.8997 9.95225 42.0591 9.95225ZM39.7364 17.4442C40.1008 17.4442 40.4158 17.3531 40.6814 17.1709C40.9547 16.9887 41.1672 16.742 41.319 16.4308C41.4709 16.1196 41.5468 15.7666 41.5468 15.3719C41.5468 14.9772 41.4709 14.6243 41.319 14.313C41.1672 14.0018 40.9547 13.7551 40.6814 13.573C40.4082 13.3908 40.0932 13.2997 39.7364 13.2997C39.3872 13.2997 39.076 13.3908 38.8028 13.573C38.5371 13.7551 38.3246 14.0018 38.1652 14.313C38.0133 14.6243 37.9374 14.9772 37.9374 15.3719C37.9374 15.7666 38.0133 16.1196 38.1652 16.4308C38.3246 16.742 38.5371 16.9887 38.8028 17.1709C39.076 17.3531 39.3872 17.4442 39.7364 17.4442ZM34.2782 36.3013L34.1928 35.7889C34.8949 36.0736 35.5117 36.4721 36.043 36.9844C36.5744 37.4778 36.9824 38.0376 37.267 38.6639C37.5706 39.2901 37.7224 39.9448 37.7224 40.6279C37.7224 41.6906 37.4283 42.6679 36.84 43.5598C36.2707 44.4327 35.4927 45.1348 34.5059 45.6662C33.5381 46.1786 32.4565 46.4347 31.2609 46.4347C30.0464 46.4347 28.9458 46.1786 27.959 45.6662C26.9912 45.1348 26.2132 44.4327 25.6249 43.5598C25.0556 42.6679 24.771 41.6906 24.771 40.6279C24.771 39.774 24.9513 39.0244 25.3118 38.3792C25.6724 37.734 26.1278 37.1932 26.6781 36.7567C27.2284 36.3203 27.7882 35.9597 28.3575 35.6751L28.1583 36.3013C27.6839 36.0926 27.2189 35.8079 26.7635 35.4474C26.3271 35.0678 25.9665 34.5934 25.6819 34.0241C25.3972 33.4548 25.2549 32.8001 25.2549 32.06C25.2549 31.0163 25.5206 30.077 26.0519 29.242C26.5832 28.3881 27.3043 27.7144 28.2152 27.221C29.1261 26.7087 30.1413 26.4525 31.2609 26.4525C32.3806 26.4525 33.3863 26.7087 34.2782 27.221C35.1701 27.7144 35.8817 28.3881 36.4131 29.242C36.9444 30.077 37.2101 31.0163 37.2101 32.06C37.2101 32.8571 37.0583 33.5402 36.7546 34.1095C36.451 34.6598 36.0715 35.1153 35.616 35.4758C35.1606 35.8364 34.7147 36.1115 34.2782 36.3013ZM28.1014 32.117C28.1014 32.7052 28.2437 33.2271 28.5283 33.6825C28.813 34.138 29.1925 34.4985 29.6669 34.7642C30.1413 35.0299 30.6727 35.1627 31.2609 35.1627C31.8302 35.1627 32.3521 35.0299 32.8265 34.7642C33.3009 34.4985 33.671 34.138 33.9366 33.6825C34.2213 33.2271 34.3636 32.7052 34.3636 32.117C34.3636 31.2251 34.0695 30.4945 33.4812 29.9252C32.8929 29.3559 32.1528 29.0713 31.2609 29.0713C30.3311 29.0713 29.572 29.3559 28.9838 29.9252C28.3955 30.4945 28.1014 31.2251 28.1014 32.117ZM31.2609 43.816C32.2857 43.816 33.1396 43.5124 33.8228 42.9051C34.5249 42.2789 34.876 41.5103 34.876 40.5995C34.876 39.9732 34.7147 39.4134 34.3921 38.92C34.0695 38.4267 33.633 38.0376 33.0827 37.753C32.5324 37.4683 31.9251 37.326 31.2609 37.326C30.5968 37.326 29.9895 37.4683 29.4392 37.753C28.8889 38.0376 28.4524 38.4267 28.1298 38.92C27.8072 39.4134 27.6459 39.9732 27.6459 40.5995C27.6459 41.5103 27.9875 42.2789 28.6706 42.9051C29.3538 43.5124 30.2172 43.816 31.2609 43.816Z" fill="#454545"/>
</svg>
