<svg width="63" height="77" viewBox="0 0 63 77" fill="none" xmlns="http://www.w3.org/2000/svg">
<rect x="0.165039" y="0.615112" width="62.6699" height="76.2399" rx="9.96266" fill="white"/>
<path d="M25.219 18.3778C25.0368 18.3778 24.8888 18.3247 24.775 18.2184C24.6687 18.1045 24.6156 17.9641 24.6156 17.7971V10.977H25.8339V17.7971C25.8339 17.9641 25.7731 18.1045 25.6517 18.2184C25.5378 18.3247 25.3936 18.3778 25.219 18.3778ZM22.6344 11.5007C22.475 11.5007 22.3384 11.4514 22.2245 11.3527C22.1107 11.2464 22.0537 11.1098 22.0537 10.9428C22.0537 10.7834 22.1107 10.6544 22.2245 10.5557C22.3384 10.457 22.475 10.4077 22.6344 10.4077H27.815C27.9744 10.4077 28.1072 10.4608 28.2135 10.5671C28.3274 10.6658 28.3843 10.7948 28.3843 10.9542C28.3843 11.1212 28.3274 11.254 28.2135 11.3527C28.1072 11.4514 27.9744 11.5007 27.815 11.5007H22.6344ZM32.6429 12.3888C32.8023 12.3888 32.9351 12.4458 33.0414 12.5596C33.1553 12.6659 33.2122 12.8025 33.2122 12.9695V15.964C33.2122 16.7534 32.9921 17.3721 32.5518 17.8199C32.1115 18.2602 31.4891 18.4803 30.6845 18.4803C29.8875 18.4803 29.2689 18.2602 28.8286 17.8199C28.3959 17.3721 28.1796 16.7534 28.1796 15.964V12.9695C28.1796 12.8025 28.2327 12.6659 28.339 12.5596C28.4453 12.4458 28.5819 12.3888 28.7489 12.3888C28.9083 12.3888 29.0411 12.4458 29.1474 12.5596C29.2613 12.6659 29.3182 12.8025 29.3182 12.9695V15.964C29.3182 16.4574 29.4321 16.8255 29.6598 17.0684C29.8951 17.3113 30.2367 17.4328 30.6845 17.4328C31.1399 17.4328 31.4853 17.3113 31.7206 17.0684C31.9559 16.8255 32.0736 16.4574 32.0736 15.964V12.9695C32.0736 12.8025 32.1267 12.6659 32.233 12.5596C32.3393 12.4458 32.4759 12.3888 32.6429 12.3888ZM37.585 18.4917C36.955 18.4917 36.4084 18.3626 35.9454 18.1045C35.4824 17.8389 35.1218 17.4783 34.8638 17.0229C34.6133 16.5599 34.488 16.0323 34.488 15.4402C34.488 14.7723 34.6209 14.203 34.8865 13.7324C35.1598 13.2542 35.5128 12.8898 35.9454 12.6393C36.3781 12.3812 36.8373 12.2522 37.3231 12.2522C37.695 12.2522 38.048 12.3281 38.382 12.4799C38.716 12.6241 39.012 12.8291 39.2701 13.0948C39.5358 13.3528 39.7445 13.6603 39.8963 14.017C40.0481 14.3662 40.1278 14.7495 40.1354 15.167C40.1278 15.3188 40.0671 15.444 39.9532 15.5427C39.8394 15.6414 39.7066 15.6907 39.5547 15.6907H35.1256L34.8524 14.7229H39.1335L38.9171 14.9279V14.6432C38.902 14.3776 38.8147 14.1461 38.6553 13.9487C38.4959 13.7437 38.2985 13.5881 38.0632 13.4819C37.8279 13.368 37.5812 13.3111 37.3231 13.3111C37.0954 13.3111 36.8753 13.349 36.6627 13.4249C36.4578 13.4933 36.2718 13.6071 36.1048 13.7665C35.9454 13.9259 35.8164 14.1385 35.7177 14.4041C35.6266 14.6622 35.5811 14.9848 35.5811 15.3719C35.5811 15.7894 35.6684 16.1538 35.8429 16.465C36.0175 16.7762 36.2528 17.0191 36.5489 17.1937C36.8449 17.3607 37.1713 17.4442 37.5281 17.4442C37.8089 17.4442 38.0404 17.4176 38.2226 17.3645C38.4048 17.3037 38.5566 17.2316 38.678 17.1481C38.7995 17.0646 38.9057 16.9849 38.9968 16.909C39.1107 16.8407 39.2246 16.8066 39.3384 16.8066C39.475 16.8066 39.5889 16.8559 39.68 16.9546C39.7711 17.0457 39.8166 17.1557 39.8166 17.2848C39.8166 17.4518 39.7331 17.6036 39.5661 17.7402C39.3612 17.9376 39.0765 18.1121 38.7122 18.2639C38.3554 18.4158 37.9797 18.4917 37.585 18.4917ZM29.0124 46.4917C28.6139 46.4917 28.2629 46.3683 27.9592 46.1216C27.6746 45.856 27.5323 45.5239 27.5323 45.1254C27.5323 44.9166 27.5797 44.6984 27.6746 44.4707L34.8477 28.6158L35.1608 29.242H26.4506C26.0711 29.242 25.7485 29.1187 25.4828 28.872C25.2361 28.6063 25.1128 28.2837 25.1128 27.9042C25.1128 27.5436 25.2361 27.24 25.4828 26.9933C25.7485 26.7466 26.0711 26.6233 26.4506 26.6233H36.5556C36.9731 26.6233 37.3241 26.7561 37.6088 27.0218C37.9124 27.2685 38.0642 27.5911 38.0642 27.9896C38.0642 28.2173 38.0168 28.4355 37.9219 28.6443L30.3218 45.5808C30.208 45.8654 30.0277 46.0932 29.781 46.2639C29.5343 46.4158 29.2781 46.4917 29.0124 46.4917Z" fill="#454545"/>
</svg>
