<svg width="63" height="77" viewBox="0 0 63 77" fill="none" xmlns="http://www.w3.org/2000/svg">
<rect x="0.330078" y="0.00012207" width="62.6699" height="76.2399" rx="9.96266" fill="white"/>
<path d="M24.7114 17.7631C24.5292 17.7631 24.3812 17.7099 24.2673 17.6037C24.161 17.4898 24.1079 17.3494 24.1079 17.1824V10.3622H25.3262V17.1824C25.3262 17.3494 25.2655 17.4898 25.144 17.6037C25.0302 17.7099 24.8859 17.7631 24.7114 17.7631ZM22.1268 10.886C21.9674 10.886 21.8307 10.8366 21.7169 10.738C21.603 10.6317 21.5461 10.4951 21.5461 10.3281C21.5461 10.1687 21.603 10.0396 21.7169 9.94095C21.8307 9.84228 21.9674 9.79294 22.1268 9.79294H27.3073C27.4667 9.79294 27.5996 9.84607 27.7058 9.95234C27.8197 10.051 27.8766 10.1801 27.8766 10.3395C27.8766 10.5065 27.8197 10.6393 27.7058 10.738C27.5996 10.8366 27.4667 10.886 27.3073 10.886H22.1268ZM32.0569 11.6716C32.5806 11.6716 32.9867 11.7855 33.2751 12.0132C33.5636 12.2333 33.7647 12.5331 33.8786 12.9127C34 13.2922 34.0608 13.7097 34.0608 14.1651V17.1824C34.0608 17.3494 34.0038 17.4898 33.89 17.6037C33.7837 17.7099 33.6509 17.7631 33.4915 17.7631C33.3245 17.7631 33.1879 17.7099 33.0816 17.6037C32.9753 17.4898 32.9222 17.3494 32.9222 17.1824V14.1651C32.9222 13.8994 32.8842 13.6565 32.8083 13.4364C32.74 13.2163 32.6148 13.0417 32.4326 12.9127C32.258 12.7836 32.0113 12.7191 31.6925 12.7191C31.3965 12.7191 31.1308 12.7836 30.8955 12.9127C30.6678 13.0417 30.4894 13.2163 30.3604 13.4364C30.2389 13.6565 30.1782 13.8994 30.1782 14.1651V17.1824C30.1782 17.3494 30.1213 17.4898 30.0074 17.6037C29.9011 17.7099 29.7683 17.7631 29.6089 17.7631C29.4419 17.7631 29.3053 17.7099 29.199 17.6037C29.0927 17.4898 29.0396 17.3494 29.0396 17.1824V9.91818C29.0396 9.75119 29.0927 9.61456 29.199 9.50829C29.3053 9.39443 29.4419 9.3375 29.6089 9.3375C29.7683 9.3375 29.9011 9.39443 30.0074 9.50829C30.1213 9.61456 30.1782 9.75119 30.1782 9.91818V13.0265L29.9732 13.1404C30.0264 12.9734 30.1137 12.8026 30.2351 12.628C30.3642 12.4534 30.5198 12.294 30.7019 12.1498C30.8917 12.0056 31.1004 11.8917 31.3282 11.8082C31.5559 11.7172 31.7988 11.6716 32.0569 11.6716ZM40.1076 11.7741C40.267 11.7741 40.3998 11.831 40.5061 11.9449C40.6199 12.0511 40.6769 12.1878 40.6769 12.3548V15.3493C40.6769 16.1387 40.4567 16.7573 40.0165 17.2052C39.5762 17.6454 38.9538 17.8655 38.1492 17.8655C37.3522 17.8655 36.7336 17.6454 36.2933 17.2052C35.8606 16.7573 35.6443 16.1387 35.6443 15.3493V12.3548C35.6443 12.1878 35.6974 12.0511 35.8037 11.9449C35.91 11.831 36.0466 11.7741 36.2136 11.7741C36.373 11.7741 36.5058 11.831 36.6121 11.9449C36.726 12.0511 36.7829 12.1878 36.7829 12.3548V15.3493C36.7829 15.8426 36.8968 16.2108 37.1245 16.4537C37.3598 16.6966 37.7014 16.818 38.1492 16.818C38.6046 16.818 38.95 16.6966 39.1853 16.4537C39.4206 16.2108 39.5383 15.8426 39.5383 15.3493V12.3548C39.5383 12.1878 39.5914 12.0511 39.6977 11.9449C39.8039 11.831 39.9406 11.7741 40.1076 11.7741ZM31.2793 25.4962C32.342 25.4962 33.2813 25.7049 34.0973 26.1224C34.9323 26.5399 35.6249 27.1092 36.1752 27.8303C36.7445 28.5324 37.1715 29.3389 37.4561 30.2498C37.7598 31.1417 37.9116 32.0715 37.9116 33.0393C37.9116 33.7794 37.8262 34.6334 37.6554 35.6012C37.4846 36.55 37.2 37.5462 36.8015 38.5899C36.403 39.6337 35.8716 40.6394 35.2074 41.6072C34.5622 42.575 33.7462 43.4479 32.7595 44.226C31.7917 44.985 30.6341 45.5733 29.2868 45.9908C29.097 46.0287 28.9167 46.0477 28.7459 46.0477C28.3664 46.0477 28.0248 45.9433 27.7212 45.7346C27.4366 45.5259 27.2942 45.1843 27.2942 44.7099C27.2942 44.3493 27.4081 44.0457 27.6358 43.799C27.8635 43.5523 28.1672 43.372 28.5467 43.2582C29.4765 42.9166 30.3874 42.3947 31.2793 41.6926C32.1712 40.9715 32.9397 40.127 33.5849 39.1592C34.2301 38.1725 34.6666 37.1193 34.8943 35.9997L35.6059 35.8858C35.3213 36.2843 34.9607 36.6923 34.5243 37.1098C34.0878 37.5273 33.566 37.8783 32.9587 38.163C32.3515 38.4286 31.6493 38.5615 30.8523 38.5615C29.6189 38.5615 28.5467 38.2863 27.6358 37.736C26.7249 37.1667 26.0228 36.3887 25.5294 35.4019C25.036 34.4151 24.7893 33.286 24.7893 32.0146C24.7893 30.8381 25.074 29.7564 25.6433 28.7696C26.2316 27.7828 27.0096 26.9953 27.9774 26.407C28.9642 25.7998 30.0648 25.4962 31.2793 25.4962ZM31.3078 28.1149C30.6056 28.1149 29.9794 28.2857 29.4291 28.6273C28.8788 28.9689 28.4423 29.4338 28.1197 30.0221C27.7971 30.6103 27.6358 31.2745 27.6358 32.0146C27.6358 32.7547 27.7781 33.4283 28.0628 34.0356C28.3474 34.6239 28.7649 35.0888 29.3152 35.4304C29.8656 35.7719 30.5108 35.9427 31.2508 35.9427C31.9909 35.9427 32.6456 35.7719 33.2149 35.4304C33.7842 35.0698 34.2301 34.5859 34.5527 33.9787C34.8753 33.3714 35.0366 32.7072 35.0366 31.9861C35.0366 31.265 34.8753 30.6198 34.5527 30.0505C34.2301 29.4623 33.7937 28.9973 33.2434 28.6558C32.6931 28.2952 32.0478 28.1149 31.3078 28.1149Z" fill="#454545"/>
</svg>
